<svg xmlns="http://www.w3.org/2000/svg" viewBox="0 0 750 471" fill="none">
  <rect width="750" height="471" rx="40" fill="#1A1F71"/>
  <path d="M278.198 334.228l33.36-195.763h53.358l-33.384 195.763H278.198zm246.11-191.54c-10.57-3.966-27.135-8.222-47.822-8.222-52.726 0-89.863 26.551-90.18 64.604-.634 28.141 26.485 43.837 46.754 53.186 20.771 9.569 27.752 15.716 27.752 24.27-.317 13.111-16.643 19.084-32.03 19.084-21.404 0-32.764-2.963-50.308-10.236l-6.906-3.111-7.509 43.889c12.493 5.467 35.585 10.199 59.579 10.452 56.07 0 92.502-26.187 92.939-66.823.22-22.27-14.016-39.215-44.8-53.186-18.656-9.056-30.08-15.117-30.08-24.322.317-8.304 9.7-16.932 30.652-16.932 17.492-.317 30.178 3.558 40.058 7.526l4.811 2.27 7.27-42.65zm138.44-4.222h-41.23c-12.774 0-22.332 3.472-27.94 16.168l-79.245 179.594h56.07s9.159-24.087 11.231-29.382c6.12 0 60.545.085 68.336.085 1.598 6.857 6.486 29.297 6.486 29.297h49.558l-43.266-195.762zm-65.417 126.408c4.414-11.267 21.26-54.723 21.26-54.723-.318.536 4.38-11.323 7.074-18.661l3.606 16.858s10.217 46.734 12.353 56.526h-44.293z" fill="#fff"/>
  <path d="M232.903 138.465L178.56 274.18l-5.762-27.842c-10.025-32.123-41.264-66.931-76.203-84.38l47.767 171.94h56.455l83.96-195.433h-51.874z" fill="#fff"/>
  <path d="M120.55 138.465H36.474l-.698 3.876c66.947 16.196 111.276 55.296 129.628 102.237l-18.7-89.921c-3.229-12.34-12.592-15.847-26.154-16.192z" fill="#F7B600"/>
</svg>
